<?xml version="1.0" standalone="no"?>
<!DOCTYPE svg PUBLIC "-//W3C//DTD SVG 20010904//EN"
 "http://www.w3.org/TR/2001/REC-SVG-20010904/DTD/svg10.dtd">
<svg version="1.0" xmlns="http://www.w3.org/2000/svg"
 width="771.000000pt" height="463.000000pt" viewBox="0 0 771.000000 463.000000"
 preserveAspectRatio="xMidYMid meet">

<g transform="translate(0.000000,463.000000) scale(0.100000,-0.100000)"
fill="#000000" stroke="none">
<path d="M0 4050 l0 -580 640 0 640 0 0 -580 0 -580 -640 0 -640 0 0 -575 0
-575 640 0 640 0 0 -580 0 -580 645 0 645 0 0 580 0 580 640 0 640 0 0 575 0
575 -640 0 -640 0 0 -575 0 -575 -645 0 -645 0 0 575 0 575 643 2 642 3 3 578
2 577 640 0 640 0 2 -577 3 -578 643 -3 642 -2 0 -575 0 -575 -642 -2 -643 -3
-3 -577 -2 -578 645 0 645 0 0 580 0 580 645 0 645 0 0 -580 0 -580 640 0 640
0 0 580 0 580 -640 0 -640 0 0 575 0 575 640 0 640 0 0 580 0 580 -640 0 -640
0 0 580 0 580 -645 0 -645 0 0 -580 0 -580 -645 0 -645 0 0 580 0 580 -640 0
-640 0 0 -580 0 -580 -645 0 -645 0 0 580 0 580 -640 0 -640 0 0 -580z m6430
-1160 l0 -580 -645 0 -645 0 0 580 0 580 645 0 645 0 0 -580z"/>
</g>
</svg>
